<?xml version="1.0" encoding="UTF-8"?>
<svg version="1.1" xmlns="http://www.w3.org/2000/svg" width="464" height="452">
<path d="M0 0 C2.36297013 0.23142065 4.60305596 0.31052492 6.97167969 0.2421875 C9.79199219 0.2734375 9.79199219 0.2734375 11.79199219 2.2734375 C13.5988471 2.94283996 13.5988471 2.94283996 15.68652344 3.421875 C16.47172363 3.62063232 17.25692383 3.81938965 18.06591797 4.02416992 C18.90364746 4.23017822 19.74137695 4.43618652 20.60449219 4.6484375 C22.32763158 5.08795392 24.05028724 5.52937101 25.77246094 5.97265625 C26.62243652 6.19099121 27.47241211 6.40932617 28.34814453 6.63427734 C31.72445345 7.51731198 35.07135338 8.46729394 38.41699219 9.4609375 C39.44050781 9.76386719 40.46402344 10.06679688 41.51855469 10.37890625 C43.79199219 11.2734375 43.79199219 11.2734375 44.79199219 13.2734375 C45.96761719 13.6446875 47.14324219 14.0159375 48.35449219 14.3984375 C63.575085 19.20621206 78.93405192 28.45617758 91.70605469 37.828125 C93.74224189 39.31267607 93.74224189 39.31267607 95.94042969 40.34375 C97.79199219 41.2734375 97.79199219 41.2734375 99.79199219 43.2734375 C100.82699238 44.1769647 101.86956698 45.07184401 102.91699219 45.9609375 C103.54347656 46.4971875 104.16996094 47.0334375 104.81542969 47.5859375 C106.08846715 48.67279952 107.36430122 49.75639871 108.64355469 50.8359375 C126.49722795 66.11809404 142.33770991 84.72459688 153.79199219 105.2734375 C154.23897461 106.06395508 154.68595703 106.85447266 155.14648438 107.66894531 C164.0149813 123.4942724 171.05828269 139.87729728 175.97167969 157.3671875 C176.66814539 160.18193649 176.66814539 160.18193649 177.79199219 162.2734375 C178.18780234 164.66274403 178.53456415 167.06029229 178.85449219 169.4609375 C179.03109375 170.75386719 179.20769531 172.04679688 179.38964844 173.37890625 C179.76843636 177.04542627 179.8636353 180.59098174 179.79199219 184.2734375 C180.78199219 184.2734375 181.77199219 184.2734375 182.79199219 184.2734375 C182.71762939 184.80461182 182.6432666 185.33578613 182.56665039 185.88305664 C181.91528508 191.25779221 181.73899144 196.54788176 181.83496094 201.95703125 C181.84692505 202.65162949 181.85888916 203.34622772 181.87121582 204.06187439 C181.88358276 204.77597977 181.89594971 205.49008514 181.90869141 206.22583008 C182.32222214 230.33307853 179.34072246 252.67158076 172.44726562 275.82470703 C171.51965022 279.29116848 170.90784383 282.79882983 170.32373047 286.33764648 C170.14825684 286.97645752 169.9727832 287.61526855 169.79199219 288.2734375 C169.13199219 288.6034375 168.47199219 288.9334375 167.79199219 289.2734375 C167.64761719 290.3871875 167.50324219 291.5009375 167.35449219 292.6484375 C166.74177111 296.59708444 166.44688743 296.73130938 163.79199219 299.2734375 C162.6498358 301.21124877 162.6498358 301.21124877 161.66308594 303.37890625 C161.27314453 304.189646 160.88320313 305.00038574 160.48144531 305.83569336 C160.06830078 306.70202393 159.65515625 307.56835449 159.22949219 308.4609375 C152.20106892 322.81926096 143.92563666 335.91388432 133.79199219 348.2734375 C133.33066895 348.83772461 132.8693457 349.40201172 132.39404297 349.98339844 C121.97771428 362.63255343 110.78345945 374.24134459 97.79199219 384.2734375 C96.87160156 384.99917969 95.95121094 385.72492188 95.00292969 386.47265625 C64.15160691 410.29719527 23.82864954 427.90077038 -15.53222656 429 C-16.41523438 429.09023438 -17.29824219 429.18046875 -18.20800781 429.2734375 C-18.53800781 429.9334375 -18.86800781 430.5934375 -19.20800781 431.2734375 C-24.02396453 431.17813339 -28.83951836 431.07171417 -33.6550293 430.95605469 C-35.28484813 430.91834885 -36.91473387 430.88340836 -38.54467773 430.8515625 C-47.97315615 430.66526345 -57.25358863 430.21722296 -66.60569763 428.95303345 C-70.50661179 428.42954789 -74.27240255 428.17963274 -78.20800781 428.2734375 C-78.20800781 427.6134375 -78.20800781 426.9534375 -78.20800781 426.2734375 C-79.32949219 426.16 -80.45097656 426.0465625 -81.60644531 425.9296875 C-86.479368 425.32030395 -91.10881897 424.08571218 -95.83300781 422.7734375 C-100.94113918 421.36789821 -105.9518214 420.02189123 -111.20800781 419.2734375 C-111.20800781 418.6134375 -111.20800781 417.9534375 -111.20800781 417.2734375 C-111.76746094 417.12648438 -112.32691406 416.97953125 -112.90332031 416.828125 C-139.50993776 409.38511626 -163.1821692 392.92566263 -183.20800781 374.2734375 C-184.57875964 373.08103628 -185.95358645 371.89329867 -187.33300781 370.7109375 C-191.46076962 367.10546392 -195.62014214 363.42429274 -199.20800781 359.2734375 C-199.20800781 358.6134375 -199.20800781 357.9534375 -199.20800781 357.2734375 C-199.86800781 357.2734375 -200.52800781 357.2734375 -201.20800781 357.2734375 C-205.20800781 352.80284926 -205.20800781 352.80284926 -205.20800781 350.2734375 C-205.86800781 350.2734375 -206.52800781 350.2734375 -207.20800781 350.2734375 C-208.50488281 348.83642578 -208.50488281 348.83642578 -209.95800781 346.84375 C-210.48394531 346.13089844 -211.00988281 345.41804688 -211.55175781 344.68359375 C-212.37160156 343.55244141 -212.37160156 343.55244141 -213.20800781 342.3984375 C-214.29000656 340.92089676 -215.373285 339.44429206 -216.45800781 337.96875 C-216.93753906 337.30891113 -217.41707031 336.64907227 -217.91113281 335.96923828 C-219.24277894 334.15057841 -219.24277894 334.15057841 -221.20800781 332.2734375 C-221.89728672 330.95165203 -222.56133204 329.61658033 -223.20800781 328.2734375 C-224.04322432 326.8164751 -224.89049702 325.36638469 -225.74707031 323.921875 C-240.80868039 298.26335518 -250.18316117 272.64180601 -255.20800781 243.2734375 C-255.33546387 242.55978027 -255.46291992 241.84612305 -255.59423828 241.11083984 C-258.15269414 226.41017299 -257.86314859 211.15565506 -258.20800781 196.2734375 C-257.54800781 196.2734375 -256.88800781 196.2734375 -256.20800781 196.2734375 C-256.23991211 195.57468506 -256.27181641 194.87593262 -256.3046875 194.15600586 C-256.51733122 185.72827235 -255.25708334 178.04854431 -253.45800781 169.8359375 C-253.20535156 168.61583984 -252.95269531 167.39574219 -252.69238281 166.13867188 C-251.1566399 158.91684083 -249.27421022 151.9128983 -246.96875 144.89819336 C-246.06881934 142.24866444 -246.06881934 142.24866444 -246.20800781 139.2734375 C-245.54800781 139.2734375 -244.88800781 139.2734375 -244.20800781 139.2734375 C-244.03930176 138.65815186 -243.8705957 138.04286621 -243.69677734 137.40893555 C-241.96909581 131.35512561 -239.82129994 125.74945424 -237.08300781 120.0859375 C-236.68976318 119.26714111 -236.29651855 118.44834473 -235.89135742 117.60473633 C-228.85417442 103.19553322 -220.23882098 89.17447908 -209.64550781 77.0859375 C-207.05898355 74.46361769 -207.05898355 74.46361769 -206.20800781 71.2734375 C-204.85253906 69.94140625 -204.85253906 69.94140625 -203.02050781 68.4609375 C-199.6446317 65.61777943 -196.56120015 62.61408027 -193.50463867 59.43994141 C-174.30556039 39.60566907 -147.68004383 21.2725127 -121.14160156 12.9921875 C-119.00925318 12.35229898 -119.00925318 12.35229898 -117.20800781 10.2734375 C-115.20931516 9.93235279 -113.20889302 9.60141538 -111.20800781 9.2734375 C-109.54908564 8.79980672 -107.89725615 8.30101708 -106.25097656 7.78515625 C-70.93317507 -3.25545858 -36.53963429 -4.4579946 0 0 Z M-115.20800781 53.2734375 C-126.50556506 65.19463909 -132.2507236 82.08663166 -133.20800781 98.2734375 C-133.26085937 98.99273437 -133.31371094 99.71203125 -133.36816406 100.453125 C-134.07542198 118.71882939 -127.37445626 134.19532377 -118.45800781 149.6484375 C-110.46626908 163.55296608 -109.38889542 176.56125027 -113.20800781 192.2734375 C-113.59988281 193.5109375 -113.99175781 194.7484375 -114.39550781 196.0234375 C-115.36962478 199.91990538 -115.30175057 202.40887976 -114.20800781 206.2734375 C-111.05319897 209.42824635 -108.36271466 211.15294402 -103.83300781 211.40625 C-102.96675781 211.40367187 -102.10050781 211.40109375 -101.20800781 211.3984375 C-100.34175781 211.40101563 -99.47550781 211.40359375 -98.58300781 211.40625 C-96.05789086 211.36937955 -96.05789086 211.36937955 -93.20800781 210.2734375 C-93.20800781 209.6134375 -93.20800781 208.9534375 -93.20800781 208.2734375 C-91.22800781 208.6034375 -89.24800781 208.9334375 -87.20800781 209.2734375 C-87.20800781 209.9334375 -87.20800781 210.5934375 -87.20800781 211.2734375 C-86.54800781 211.2734375 -85.88800781 211.2734375 -85.20800781 211.2734375 C-85.10488281 211.9540625 -85.00175781 212.6346875 -84.89550781 213.3359375 C-84.06075763 216.90259739 -82.71328027 219.93565944 -81.20800781 223.2734375 C-71.8092806 221.61995771 -64.87290895 219.20429909 -59.20800781 211.2734375 C-58.17145714 209.62925367 -57.1561621 207.97013465 -56.20800781 206.2734375 C-53.83300781 206.5859375 -53.83300781 206.5859375 -51.20800781 207.2734375 C-49.20800781 210.2734375 -49.20800781 210.2734375 -49.20800781 213.4609375 C-50.75269809 219.3500692 -53.4486538 223.52790365 -58.65332031 226.8203125 C-62.00212426 228.51970555 -65.40519197 229.95324603 -68.89160156 231.34375 C-71.18178659 232.22620731 -71.18178659 232.22620731 -73.20800781 233.2734375 C-64.24333655 245.80666294 -64.24333655 245.80666294 -51.20800781 253.2734375 C-43.88281385 254.0450246 -36.89884462 253.68505723 -30.27050781 250.27734375 C-28.25629622 249.29694152 -26.35964801 248.69312384 -24.20800781 248.0859375 C-11.39466894 243.86383731 0.63902999 234.97420039 8.79199219 224.2734375 C9.78004602 223.26163237 10.77768826 222.25892598 11.79199219 221.2734375 C11.65921875 221.99789062 11.52644531 222.72234375 11.38964844 223.46875 C11.21304688 224.43554688 11.03644531 225.40234375 10.85449219 226.3984375 C10.68046875 227.34976563 10.50644531 228.30109375 10.32714844 229.28125 C10.15054688 230.26867187 9.97394531 231.25609375 9.79199219 232.2734375 C9.6025 233.19898438 9.41300781 234.12453125 9.21777344 235.078125 C8.77544121 238.39764578 8.77445716 241.50622097 8.85766602 244.84545898 C9.35464305 265.18470424 3.94953319 281.98045417 -9.92285156 297.1484375 C-15.50167941 302.3862612 -23.00529669 305.87253379 -30.20800781 308.2734375 C-31.68763489 312.27160161 -31.47585944 316.61821801 -31.64550781 320.8359375 C-31.93305057 327.12894374 -32.5146064 333.14108055 -33.90332031 339.3046875 C-34.41349451 341.34475327 -34.41349451 341.34475327 -33.20800781 343.2734375 C-26.41320297 341.39952718 -21.04305118 338.59020177 -15.27050781 334.5859375 C-14.48417969 334.0506543 -13.69785156 333.51537109 -12.88769531 332.96386719 C-7.10537328 328.99031283 -1.58629236 324.77905507 3.79199219 320.2734375 C5.43502279 318.95743064 7.08093287 317.6450119 8.72949219 316.3359375 C12.16554472 313.58816257 15.57908876 310.81518883 18.97949219 308.0234375 C19.89730469 307.27449219 20.81511719 306.52554687 21.76074219 305.75390625 C23.3388299 304.4625587 24.91610086 303.17014498 26.48339844 301.86572266 C33.47063929 296.05134009 40.53318137 290.56380604 48.22949219 285.7109375 C48.86717529 285.30560791 49.5048584 284.90027832 50.16186523 284.48266602 C62.14503292 277.13371751 74.13896451 276.25076673 87.79199219 278.2734375 C85.46888086 279.43499316 83.62015265 279.57044667 81.04199219 279.8984375 C67.49977519 282.35904948 58.17657646 289.82425923 48.79199219 299.2734375 C47.73738151 300.3060976 46.68137251 301.33733144 45.62402344 302.3671875 C40.09202736 307.78827064 34.79322524 313.35594801 29.79199219 319.2734375 C29.21320313 319.92441406 28.63441406 320.57539063 28.03808594 321.24609375 C27.4825 321.87386719 26.92691406 322.50164062 26.35449219 323.1484375 C25.86078125 323.70273437 25.36707031 324.25703125 24.85839844 324.828125 C23.59408612 326.24230371 23.59408612 326.24230371 23.79199219 328.2734375 C22.99341797 328.59248047 22.99341797 328.59248047 22.17871094 328.91796875 C18.88040694 330.79114631 16.32537486 333.35503291 13.60449219 335.9609375 C1.27326351 347.55434101 1.27326351 347.55434101 -6.20800781 351.2734375 C-7.71292381 352.28700966 -9.21228749 353.30884383 -10.70800781 354.3359375 C-26.96973631 364.68038365 -45.13485537 370.82881449 -64.20800781 373.2734375 C-64.20800781 374.2634375 -64.20800781 375.2534375 -64.20800781 376.2734375 C-64.86800781 375.6134375 -65.52800781 374.9534375 -66.20800781 374.2734375 C-69.74972759 374.10674432 -69.74972759 374.10674432 -73.20800781 374.2734375 C-83.96435565 374.2734375 -93.06669811 373.66048339 -103.58300781 371.1484375 C-104.56924637 370.9138382 -104.56924637 370.9138382 -105.57540894 370.67449951 C-113.7493076 368.72162624 -121.79944902 366.57794598 -129.77050781 363.8984375 C-137.73068165 361.26066108 -146.12519914 358.5196379 -154.39550781 361.3984375 C-157.2914704 362.99985345 -157.2914704 362.99985345 -158.33300781 365.4609375 C-157.99848949 372.9875997 -154.25341295 378.47975953 -148.79785156 383.484375 C-114.72965366 411.28081335 -65.80152786 422.78762114 -22.33300781 418.8359375 C-19.90883606 418.57708526 -18.3933592 418.36611319 -16.20800781 417.2734375 C-14.35460869 417.1912671 -12.50011199 417.13372485 -10.64550781 417.0859375 C18.54572215 415.19001225 53.92739123 403.08064581 76.79199219 384.2734375 C77.54351562 383.70367187 78.29503906 383.13390625 79.06933594 382.546875 C93.95892908 371.11505467 107.11853974 357.08622691 113.79199219 339.2734375 C114.18257813 338.32726562 114.57316406 337.38109375 114.97558594 336.40625 C119.81680595 323.2394717 119.74234339 308.21678038 114.34277344 295.2578125 C112.00018709 290.74966144 109.27348772 286.96168851 105.79199219 283.2734375 C105.29248047 282.74314941 104.79296875 282.21286133 104.27832031 281.66650391 C100.17742273 277.4254344 95.83745392 273.94008713 91.04199219 270.5234375 C73.6498787 257.74457408 60.88155368 241.58804287 55.79199219 220.2734375 C52.44990096 207.41833284 48.59806596 195.23181881 42.79199219 183.2734375 C42.33308594 182.28085938 41.87417969 181.28828125 41.40136719 180.265625 C35.35182728 168.06224277 24.07882695 156.41685488 11.79199219 150.2734375 C10.75171875 149.7475 9.71144531 149.2215625 8.63964844 148.6796875 C7.37796827 148.04419422 6.11624796 147.40878065 4.85449219 146.7734375 C4.22091797 146.45246094 3.58734375 146.13148438 2.93457031 145.80078125 C0.24334108 144.4480919 -2.34595786 143.22745415 -5.20800781 142.2734375 C-7.40306112 141.50035061 -9.5968853 140.72377183 -11.79003906 139.9453125 C-12.44066818 139.71442932 -13.0912973 139.48354614 -13.76164246 139.2456665 C-15.14444716 138.75489639 -16.52720243 138.26398698 -17.90991211 137.77294922 C-19.9746588 137.03971933 -22.03956081 136.30692834 -24.10449219 135.57421875 C-26.80694247 134.61523374 -29.50884722 133.65473125 -32.21044922 132.69335938 C-34.87229012 131.74648704 -37.53615627 130.80564906 -40.20166016 129.86914062 C-41.44512207 129.43021484 -42.68858398 128.99128906 -43.96972656 128.5390625 C-45.07662842 128.15008789 -46.18353027 127.76111328 -47.32397461 127.36035156 C-49.72541818 126.45531247 -51.94364948 125.47032164 -54.20800781 124.2734375 C-54.954375 123.91765625 -55.70074219 123.561875 -56.46972656 123.1953125 C-64.71869504 119.21030357 -72.05144691 114.5950894 -78.79785156 108.375 C-80.17245899 107.06823694 -80.17245899 107.06823694 -82.20800781 107.2734375 C-82.459375 106.70109375 -82.71074219 106.12875 -82.96972656 105.5390625 C-84.3698913 102.97724689 -86.02165372 101.14841432 -88.02050781 99.0234375 C-102.0570852 83.44410115 -105.38031833 66.46470471 -106.20800781 46.2734375 C-109.29687777 46.2734375 -113.11537846 51.26316565 -115.20800781 53.2734375 Z M-172.20800781 226.2734375 C-173.12710938 226.72203125 -174.04621094 227.170625 -174.99316406 227.6328125 C-191.5445331 236.44276387 -203.37636935 251.54354768 -209.20800781 269.2734375 C-214.20761274 288.50886528 -212.87280743 307.23075589 -203.74707031 325.140625 C-197.11764294 336.29746618 -188.01276352 346.61614108 -176.20800781 352.2734375 C-175.52480469 352.62019531 -174.84160156 352.96695313 -174.13769531 353.32421875 C-170.30543258 355.15223595 -170.30543258 355.15223595 -166.20800781 354.2734375 C-166.86800781 354.2734375 -167.52800781 354.2734375 -168.20800781 354.2734375 C-168.47613281 353.5103125 -168.74425781 352.7471875 -169.02050781 351.9609375 C-169.98813006 349.30867169 -169.98813006 349.30867169 -171.64550781 347.8984375 C-175.32375804 344.07305727 -176.90839972 338.46664451 -177.20800781 333.2734375 C-176.56870872 324.11478313 -173.82603066 319.34816355 -167.08300781 313.3984375 C-162.96865872 310.92982804 -158.94452359 310.94678124 -154.20800781 311.2734375 C-150.77050781 312.7734375 -150.77050781 312.7734375 -148.20800781 314.2734375 C-148.20800781 316.5834375 -148.20800781 318.8934375 -148.20800781 321.2734375 C-150.33392673 321.2734375 -152.46036206 321.20386226 -154.58300781 321.0859375 C-158.58467108 321.29292008 -160.18901329 321.67374777 -163.20800781 324.2734375 C-165.37656534 327.66180863 -166.4430776 329.55742805 -165.89550781 333.5546875 C-164.41720337 338.59436174 -162.40880008 341.97281501 -158.20800781 345.2734375 C-154.37069359 347.29084902 -151.15446848 347.43535019 -146.92773438 347.44824219 C-138.75078443 347.49251555 -133.62172103 348.38612801 -126.93847656 353.421875 C-119.69279025 358.33525885 -109.70870479 361.45107825 -100.95800781 361.3359375 C-100.06597656 361.32691406 -99.17394531 361.31789063 -98.25488281 361.30859375 C-97.57941406 361.29699219 -96.90394531 361.28539062 -96.20800781 361.2734375 C-96.20800781 361.6034375 -96.20800781 361.9334375 -96.20800781 362.2734375 C-81.13174324 363.21136179 -66.1586658 359.10526324 -54.70800781 349.0859375 C-44.49341051 337.59451554 -41.32223026 326.53220935 -42.20800781 311.2734375 C-43.69668233 301.53559409 -49.36144815 294.34660918 -55.83300781 287.2109375 C-61.60118897 280.69598289 -64.3304007 274.2018102 -66.58300781 265.8984375 C-68.63697709 258.40816064 -71.48502611 252.51207586 -76.20800781 246.2734375 C-76.8615625 245.38914062 -77.51511719 244.50484375 -78.18847656 243.59375 C-89.81915164 228.4311291 -103.89809866 221.8361342 -122.70800781 219.0234375 C-140.03793498 217.01208844 -156.44424439 218.50222183 -172.20800781 226.2734375 Z M-35.20800781 342.2734375 C-34.20800781 344.2734375 -34.20800781 344.2734375 -34.20800781 344.2734375 Z " fill="#70CBFD" transform="translate(267.2080078125,11.7265625)"/>
<path d="M0 0 C4.83212647 6.19503393 5.66318325 11.34430567 5 19 C3.54651148 24.31275113 1.01458794 28.58978844 -3.5 31.75 C-8.9681422 33.70290793 -14.76014213 34.37878365 -20.23046875 32.05078125 C-23.24126556 30.08289962 -24.73197138 28.72032693 -26 25.3125 C-26 23 -26 23 -25 21 C-24.08476562 21.01160156 -23.16953125 21.02320313 -22.2265625 21.03515625 C-21.03804687 21.04417969 -19.84953125 21.05320312 -18.625 21.0625 C-17.44164062 21.07410156 -16.25828125 21.08570313 -15.0390625 21.09765625 C-12.08078479 21.21466593 -12.08078479 21.21466593 -10 20 C-10 19.01 -10 18.02 -10 17 C-9.34 17 -8.68 17 -8 17 C-8.54612127 11.73447353 -8.54612127 11.73447353 -11.5625 7.68359375 C-16.72672167 5.02860076 -22.41378216 3.51102614 -28 2 C-28.33 0.35 -28.66 -1.3 -29 -3 C-20.85942767 -10.80138181 -7.62391539 -6.31301591 0 0 Z " fill="#6FCCFB" transform="translate(158,246)"/>
<path d="M0 0 C2 3 2 3 2 7 C2.99 7.33 3.98 7.66 5 8 C4.01 8 3.02 8 2 8 C1.95875 8.99 1.9175 9.98 1.875 11 C0.99275152 16.90152698 -2.61820943 21.17038925 -7.2578125 24.734375 C-8.7706908 25.74296053 -10.30088742 26.72633282 -11.8515625 27.67578125 C-14.00517541 29.00318994 -15.99805238 30.455511 -18 32 C-18.66 31.34 -19.32 30.68 -20 30 C-23.08347826 29.83318891 -23.08347826 29.83318891 -26 30 C-26 29.34 -26 28.68 -26 28 C-26.928125 27.71125 -27.85625 27.4225 -28.8125 27.125 C-32 26 -32 26 -35 24 C-35 23.34 -35 22.68 -35 22 C-35.66 22 -36.32 22 -37 22 C-40.14814815 15.7037037 -40.14814815 15.7037037 -39.5 12.625 C-37.50611761 10.46496074 -35.84744125 10.43806789 -33 10 C-32.67 9.34 -32.34 8.68 -32 8 C-31.7525 8.61875 -31.505 9.2375 -31.25 9.875 C-29.7343349 12.45163067 -28.74486397 12.89917014 -26 14 C-21.10150226 14.75667851 -17.25847501 14.87546088 -13.125 12 C-10.99271847 8.9897202 -9.38131792 6.03770695 -7.89453125 2.671875 C-6.14270491 -0.60228078 -3.37972724 -0.33797272 0 0 Z " fill="#6CC9F9" transform="translate(215,164)"/>
<path d="M0 0 C3.01078499 1.3282875 4.8130005 3.6255005 7.125 5.9375 C9.72741053 7.15737994 10.77339377 7.02765544 13.5625 6.3125 C16.33393207 5.00313125 16.33393207 5.00313125 18.625 2.25 C19.45 1.486875 20.275 0.72375 21.125 -0.0625 C25.31547619 0.12797619 25.31547619 0.12797619 27.125 1.9375 C27.64231146 6.24842881 27.38319546 9.09742991 25 12.6875 C21.8560085 16.58464823 18.84190662 18.53110556 13.80078125 19.28515625 C7.34274725 19.67085813 3.00540946 18.18591399 -1.875 13.9375 C-4.45837206 10.86974567 -4.84140872 9.26781424 -5.25 5.25 C-5.12625 4.156875 -5.0025 3.06375 -4.875 1.9375 C-1.875 -0.0625 -1.875 -0.0625 0 0 Z " fill="#6DC9F9" transform="translate(150.875,307.0625)"/>
<path d="M0 0 C2.625 0.9375 2.625 0.9375 5 2 C6.3304707 7.3218828 6.01819111 10.4037573 3.29296875 15.203125 C0.29705775 19.36662669 -2.99892073 20.7578034 -7.875 21.9375 C-12.35100971 22.29902386 -16.12398757 21.23722333 -20 19 C-21.6875 17.125 -21.6875 17.125 -22 15 C-21.3125 12.3125 -21.3125 12.3125 -19 10 C-16.17337822 9.48055955 -13.46572116 9.3116246 -10.59375 9.23828125 C-7.76279768 9.18582804 -7.76279768 9.18582804 -5 7 C-3.98377342 5.00819591 -2.98287008 3.00847365 -2 1 C-1.34 0.67 -0.68 0.34 0 0 Z " fill="#70CEFB" transform="translate(206,326)"/>
<path d="M0 0 C3 1.0625 3 1.0625 4.6875 4.0625 C5.120625 5.0525 5.55375 6.0425 6 7.0625 C6.99 7.3925 7.98 7.7225 9 8.0625 C9 8.7225 9 9.3825 9 10.0625 C11.475 10.5575 11.475 10.5575 14 11.0625 C14.75 13.25 14.75 13.25 15 16.0625 C13.5 18.9375 13.5 18.9375 11 21.0625 C5.35750422 21.16896218 1.51676897 19.1894939 -3 16.0625 C-5.55471967 13.09572877 -6.2000659 10.75806069 -6.375 6.9375 C-6 3.0625 -6 3.0625 -4.875 1 C-3 0.0625 -3 0.0625 0 0 Z " fill="#6CC8F8" transform="translate(195,291.9375)"/>
<path d="M0 0 C2.625 0.9375 2.625 0.9375 5 2 C6.19876651 7.44893869 5.91360308 10.22169095 3 15 C2.67 14.34 2.34 13.68 2 13 C2.33 12.34 2.66 11.68 3 11 C3.04022391 8.6670134 3.04320247 6.33293334 3 4 C0.525 3.505 0.525 3.505 -2 3 C-2.226875 3.928125 -2.45375 4.85625 -2.6875 5.8125 C-4 9 -4 9 -6 10.875 C-10.33189067 12.499459 -14.42540436 12.23983317 -19 12 C-19 13.98 -19 15.96 -19 18 C-17.68 18.66 -16.36 19.32 -15 20 C-19.55371901 19.52066116 -19.55371901 19.52066116 -21.5 17.25 C-22 15 -22 15 -21.3125 12.3125 C-18.02862549 9.02862549 -15.10369531 9.35345458 -10.59375 9.23828125 C-7.76279768 9.18582804 -7.76279768 9.18582804 -5 7 C-3.98377342 5.00819591 -2.98287008 3.00847365 -2 1 C-1.34 0.67 -0.68 0.34 0 0 Z " fill="#62BCF1" transform="translate(206,326)"/>
<path d="M0 0 C-0.99 0.495 -0.99 0.495 -2 1 C-2.9075 0.525625 -3.815 0.05125 -4.75 -0.4375 C-10.43037912 -3.10207016 -16.88101702 -2.22914361 -23 -2 C-23.33 -0.35 -23.66 1.3 -24 3 C-23.27554688 3.10957031 -22.55109375 3.21914062 -21.8046875 3.33203125 C-16.33712777 4.22871105 -11.77713197 5.15954315 -7 8 C-7.33 8.66 -7.66 9.32 -8 10 C-8.94875 9.566875 -9.8975 9.13375 -10.875 8.6875 C-15.45697862 6.71169813 -20.20611723 5.36003515 -25 4 C-25.33 2.35 -25.66 0.7 -26 -1 C-18.91593105 -7.78889941 -7.2789207 -5.16568566 0 0 Z " fill="#64BBF1" transform="translate(155,244)"/>
<path d="M0 0 C0.33 0 0.66 0 1 0 C2.07101997 4.36976148 2.19147698 8.65039861 2.1875 13.125 C2.18814453 13.87402588 2.18878906 14.62305176 2.18945312 15.39477539 C2.13902478 20.73043832 1.58574804 25.77315995 0.4375 30.99609375 C-0.07109976 32.98381087 -0.07109976 32.98381087 0 35 C1.98 34.34 3.96 33.68 6 33 C3.87878343 35.33333823 1.98405635 36.9148886 -1 38 C-3.12890625 37.546875 -3.12890625 37.546875 -5 37 C-4.72285156 36.19175781 -4.44570312 35.38351562 -4.16015625 34.55078125 C-3.79792969 33.48214844 -3.43570313 32.41351563 -3.0625 31.3125 C-2.70285156 30.25675781 -2.34320313 29.20101563 -1.97265625 28.11328125 C-0.60100698 23.72290187 0.12734079 19.7378225 0.09765625 15.13671875 C0.09443359 14.25048828 0.09121094 13.36425781 0.08789062 12.45117188 C0.07951172 11.53916016 0.07113281 10.62714844 0.0625 9.6875 C0.05798828 8.75615234 0.05347656 7.82480469 0.04882812 6.86523438 C0.03709234 4.57675627 0.02067363 2.28841192 0 0 Z M-2 34 C-1 36 -1 36 -1 36 Z " fill="#5DB2EC" transform="translate(234,320)"/>
<path d="M0 0 C11.88 0 23.76 0 36 0 C34.68 0.33 33.36 0.66 32 1 C32 1.99 32 2.98 32 4 C28.66666667 4 25.33333333 4 22 4 C22 3.34 22 2.68 22 2 C19.9163691 2.14151828 17.83310062 2.28837936 15.75 2.4375 C14.00976562 2.55931641 14.00976562 2.55931641 12.234375 2.68359375 C9.12414323 2.88916293 9.12414323 2.88916293 6.703125 3.66015625 C6.14109375 3.77230469 5.5790625 3.88445312 5 4 C4.34 3.34 3.68 2.68 3 2 C2.01 1.34 1.02 0.68 0 0 Z " fill="#53C3F2" transform="translate(171,384)"/>
<path d="M0 0 C0.33 0 0.66 0 1 0 C1.05888242 4.10410468 1.09388921 8.20809827 1.125 12.3125 C1.15013672 14.03436523 1.15013672 14.03436523 1.17578125 15.79101562 C1.21640031 22.96028055 1.05244333 30.07479785 -1 37 C-1.66 37.66 -2.32 38.32 -3 39 C-2.835 37.783125 -2.67 36.56625 -2.5 35.3125 C-2.0630995 31.43500807 -1.96208003 27.65101697 -2 23.75 C-2.13385179 7.47744702 -2.13385179 7.47744702 0 0 Z " fill="#5EC1F1" transform="translate(276,243)"/>
<path d="M0 0 C0.66 0.33 1.32 0.66 2 1 C1.38511719 1.59167969 0.77023438 2.18335937 0.13671875 2.79296875 C-0.67152344 3.58316406 -1.47976562 4.37335938 -2.3125 5.1875 C-3.11300781 5.96480469 -3.91351563 6.74210937 -4.73828125 7.54296875 C-6.91768015 9.91057135 -8.3804976 12.23678122 -10 15 C-13.76401741 18.42943809 -17.72242367 21.2501295 -22 24 C-22 21 -22 21 -20.7421875 19.66796875 C-20.12601563 19.17941406 -19.50984375 18.69085938 -18.875 18.1875 C-14.50405683 14.54241743 -10.50567499 10.59806808 -6.5 6.5625 C-5.54649658 5.60283325 -5.54649658 5.60283325 -4.57373047 4.6237793 C-3.04714431 3.08450971 -1.52328326 1.54253825 0 0 Z " fill="#65BCEF" transform="translate(83,62)"/>
<path d="M0 0 C0.33 0 0.66 0 1 0 C1.33 5.28 1.66 10.56 2 16 C1.34 16 0.68 16 0 16 C0.33 25.9 0.66 35.8 1 46 C0.67 46 0.34 46 0 46 C-0.76728788 41.15325271 -1.173648 36.45011891 -1.31640625 31.53515625 C-1.33718735 30.85698349 -1.35796844 30.17881073 -1.37937927 29.48008728 C-1.44409309 27.34098169 -1.5033909 25.20176704 -1.5625 23.0625 C-1.60575984 21.60090076 -1.64937634 20.13931203 -1.69335938 18.67773438 C-1.79969251 15.1186016 -1.9011733 11.55935003 -2 8 C-1.34 8 -0.68 8 0 8 C0 5.36 0 2.72 0 0 Z " fill="#61B7EB" transform="translate(11,200)"/>
<path d="M0 0 C0.99 0 1.98 0 3 0 C2.96519531 0.98097656 2.93039063 1.96195313 2.89453125 2.97265625 C2.65595066 12.82578884 2.49665676 24.27546198 7.1640625 33.234375 C8 35 8 35 7 38 C1.36444446 26.4279612 0.55344875 15.68562796 0 3 C-0.66 2.67 -1.32 2.34 -2 2 C-1.34 1.34 -0.68 0.68 0 0 Z " fill="#5FB5ED" transform="translate(160,56)"/>
<path d="M0 0 C0.66 0.33 1.32 0.66 2 1 C-1.13231211 4.34113292 -4.47458355 7.32443053 -8 10.25 C-8.825 10.93578125 -9.65 11.6215625 -10.5 12.328125 C-13.08870671 14.05932261 -14.93613806 14.62795962 -18 15 C-14.81483703 10.53594584 -11.20649963 7.74455005 -6.75 4.6875 C-6.1003125 4.23310547 -5.450625 3.77871094 -4.78125 3.31054688 C-3.19207101 2.20045861 -1.59665827 1.09930349 0 0 Z " fill="#6BC3F5" transform="translate(313,298)"/>
<path d="M0 0 C-2.52049393 0.79276039 -5.04138014 1.58423465 -7.5625 2.375 C-8.26697266 2.59671875 -8.97144531 2.8184375 -9.69726562 3.046875 C-13.0789379 4.10656954 -16.46181188 5.13992757 -19.875 6.09375 C-22.47818672 6.84867415 -24.64664196 7.6821195 -27 9 C-27.99 8.01 -28.98 7.02 -30 6 C-25.75431174 4.79669806 -21.50287762 3.61511643 -17.25 2.4375 C-15.44015625 1.92413086 -15.44015625 1.92413086 -13.59375 1.40039062 C-12.43359375 1.08134766 -11.2734375 0.76230469 -10.078125 0.43359375 C-9.00981445 0.13509521 -7.94150391 -0.16340332 -6.84082031 -0.47094727 C-4.07873743 -0.98533654 -2.60418934 -0.94772713 0 0 Z " fill="#60B6ED" transform="translate(297,421)"/>
<path d="M0 0 C0.33 0.66 0.66 1.32 1 2 C-2.34939881 4.02558881 -4.86962551 4.21738987 -8.75 4.125 C-9.73484375 4.10695313 -10.7196875 4.08890625 -11.734375 4.0703125 C-12.85585937 4.03550781 -12.85585937 4.03550781 -14 4 C-12.47427344 7.32635882 -11.06655496 8.95563002 -8 11 C-12.75 10.25 -12.75 10.25 -15 8 C-16.24193548 3.48387097 -16.24193548 3.48387097 -15 1 C-14.08476562 1.01160156 -13.16953125 1.02320313 -12.2265625 1.03515625 C-11.03804687 1.04417969 -9.84953125 1.05320312 -8.625 1.0625 C-6.84996094 1.07990234 -6.84996094 1.07990234 -5.0390625 1.09765625 C-2.08078479 1.21466593 -2.08078479 1.21466593 0 0 Z " fill="#61BBF1" transform="translate(148,266)"/>
<path d="M0 0 C0.33 0.66 0.66 1.32 1 2 C-2.66909488 5.72355269 -6.44674879 9.2943376 -10.3125 12.8125 C-11.13717773 13.56563477 -11.13717773 13.56563477 -11.97851562 14.33398438 C-13.31805239 15.55703968 -14.65888992 16.77867008 -16 18 C-16.66 17.67 -17.32 17.34 -18 17 C-16.25719203 15.03483377 -14.50635594 13.07799631 -12.75 11.125 C-12.25886719 10.56941406 -11.76773437 10.01382812 -11.26171875 9.44140625 C-8.70466758 6.61160296 -6.54396677 4.45555778 -3 3 C-1.29078411 1.4587688 -1.29078411 1.4587688 0 0 Z " fill="#62C0F3" transform="translate(291,336)"/>
<path d="M0 0 C0.765625 1.64453125 0.765625 1.64453125 1 4 C-0.765625 6.76171875 -0.765625 6.76171875 -3.25 9.6875 C-4.05953125 10.66074219 -4.8690625 11.63398437 -5.703125 12.63671875 C-8 15 -8 15 -11 16 C-9.6020749 11.93064734 -7.66821145 9.06055399 -4.9375 5.75 C-4.22464844 4.87859375 -3.51179688 4.0071875 -2.77734375 3.109375 C-1.88187356 2.04661917 -0.98267919 0.98267919 0 0 Z " fill="#6DC3F2" transform="translate(57,90)"/>
<path d="M0 0 C3.08377329 1.36048821 4.92166035 3.42814095 7.125 5.9375 C7.125 6.5975 7.125 7.2575 7.125 7.9375 C6.2896875 7.504375 6.2896875 7.504375 5.4375 7.0625 C0.97254588 4.76611122 0.97254588 4.76611122 -3.875 3.9375 C-3.215 6.5775 -2.555 9.2175 -1.875 11.9375 C-3.375 10.875 -3.375 10.875 -4.875 8.9375 C-5.25 5.375 -5.25 5.375 -4.875 1.9375 C-1.875 -0.0625 -1.875 -0.0625 0 0 Z " fill="#60BFF1" transform="translate(150.875,307.0625)"/>
<path d="M0 0 C4.84015316 1.76534644 9.2835127 4.19536725 13.8125 6.625 C14.60076172 7.04523438 15.38902344 7.46546875 16.20117188 7.8984375 C18.13535326 8.9300009 20.06823983 9.96391172 22 11 C19 12 19 12 17.203125 11.328125 C16.55859375 10.97234375 15.9140625 10.6165625 15.25 10.25 C11.56517302 8.28475894 7.85434155 6.60597565 4 5 C4 4.34 4 3.68 4 3 C2.68 2.34 1.36 1.68 0 1 C0 0.67 0 0.34 0 0 Z " fill="#63B9EE" transform="translate(128,403)"/>
<path d="M0 0 C4.93446488 0.43539396 7.47991362 2.63296086 11 6 C12.875 8.8125 12.875 8.8125 14 11 C10.77026656 9.52186113 8.11002902 7.68253503 5.3125 5.5 C4.52488281 4.8915625 3.73726563 4.283125 2.92578125 3.65625 C1 2 1 2 0 0 Z " fill="#68C2F3" transform="translate(92,392)"/>
<path d="M0 0 C1.38550197 2.77100394 1.1877467 4.9334706 1 8 C0.01 9.485 0.01 9.485 -1 11 C-1.4603764 14.19806665 -1.4603764 14.19806665 -1.625 17.6875 C-1.69976562 18.86699219 -1.77453125 20.04648437 -1.8515625 21.26171875 C-1.92503906 22.61716797 -1.92503906 22.61716797 -2 24 C-2.33 24 -2.66 24 -3 24 C-3.08728882 20.75017 -3.14048658 17.5006425 -3.1875 14.25 C-3.21263672 13.32960937 -3.23777344 12.40921875 -3.26367188 11.4609375 C-3.27333984 10.57148438 -3.28300781 9.68203125 -3.29296875 8.765625 C-3.3086792 7.94868164 -3.32438965 7.13173828 -3.34057617 6.29003906 C-2.92379459 3.48759373 -1.83804852 2.11152979 0 0 Z " fill="#78D7FB" transform="translate(277,236)"/>
<path d="M0 0 C1.0326802 2.78823655 1.04509293 3.8677274 0.0625 6.75 C-0.288125 7.4925 -0.63875 8.235 -1 9 C-1.33 7.68 -1.66 6.36 -2 5 C-3.98 7.31 -5.96 9.62 -8 12 C-8.66 11.67 -9.32 11.34 -10 11 C-8.66666667 9.33333333 -7.33333333 7.66666667 -6 6 C-5.29875 5.0925 -4.5975 4.185 -3.875 3.25 C-2 1 -2 1 0 0 Z " fill="#5FC3F2" transform="translate(279,232)"/>
<path d="M0 0 C0.66 0.33 1.32 0.66 2 1 C-0.65654657 4.73884332 -2.58110387 6.64978174 -7 8 C-7 8.66 -7 9.32 -7 10 C-8.65 10 -10.3 10 -12 10 C-8.8790306 5.8981545 -7.00563592 3.62344949 -2 2 C-1.34 1.34 -0.68 0.68 0 0 Z " fill="#63BFF1" transform="translate(348,392)"/>
<path d="M0 0 C2.97 0.495 2.97 0.495 6 1 C6 1.66 6 2.32 6 3 C3.41814569 3.3902803 0.83579017 3.76263148 -1.75 4.125 C-2.84441406 4.29322266 -2.84441406 4.29322266 -3.9609375 4.46484375 C-8.34293079 5.06238829 -9.90889339 5.04555331 -14 3 C-9.38 2.67 -4.76 2.34 0 2 C0 1.34 0 0.68 0 0 Z " fill="#65BAF1" transform="translate(174,220)"/>
<path d="M0 0 C1.39456452 0.00667256 2.78911118 0.01863093 4.18359375 0.03515625 C4.89451172 0.03966797 5.60542969 0.04417969 6.33789062 0.04882812 C8.09899388 0.06064761 9.86005411 0.07858362 11.62109375 0.09765625 C5.29980432 3.4708389 -1.3815528 3.24045938 -8.37890625 3.09765625 C-7.73953125 2.78828125 -7.10015625 2.47890625 -6.44140625 2.16015625 C-2.38178809 0.06883781 -2.38178809 0.06883781 0 0 Z " fill="#5CB5ED" transform="translate(253.37890625,427.90234375)"/>
<path d="M0 0 C2.1875 0.3125 2.1875 0.3125 4 1 C0.09543873 4.53269829 -2.80177328 6.63855967 -8 8 C-6.33333333 6.33333333 -4.66666667 4.66666667 -3 3 C-2.484375 2.38125 -1.96875 1.7625 -1.4375 1.125 C-0.963125 0.75375 -0.48875 0.3825 0 0 Z " fill="#6DC4F2" transform="translate(93,54)"/>
<path d="M0 0 C0.99 0.33 1.98 0.66 3 1 C3 1.66 3 2.32 3 3 C4.98 2.34 6.96 1.68 9 1 C6.87878343 3.33333823 4.98405635 4.9148886 2 6 C-0.25 5.625 -0.25 5.625 -2 5 C-1.34 3.35 -0.68 1.7 0 0 Z M1 2 C2 4 2 4 2 4 Z " fill="#5DC1F3" transform="translate(231,352)"/>
<path d="M0 0 C0.33 0.66 0.66 1.32 1 2 C-1.31 5.3 -3.62 8.6 -6 12 C-6 8.07001693 -4.72141165 5.50657929 -3 2 C-2.01 1.34 -1.02 0.68 0 0 Z " fill="#66BCEE" transform="translate(413,340)"/>
<path d="M0 0 C1.37562854 1.28965176 2.70766393 2.62689293 4 4 C4 4.66 4 5.32 4 6 C4.639375 6.2475 5.27875 6.495 5.9375 6.75 C8 8 8 8 8.75 10.125 C8.87375 11.053125 8.87375 11.053125 9 12 C7.35 11.67 5.7 11.34 4 11 C3.896875 10.443125 3.79375 9.88625 3.6875 9.3125 C2.87055365 6.56458956 1.47929543 4.44405332 0 2 C0 1.34 0 0.68 0 0 Z " fill="#66C2F1" transform="translate(41,333)"/>
<path d="M0 0 C3.3 0 6.6 0 10 0 C7.75043698 2.24956302 5.93676737 3.00510965 3 4.1875 C2.113125 4.55230469 1.22625 4.91710937 0.3125 5.29296875 C-2 6 -2 6 -4 5 C-2.35 4.01 -0.7 3.02 1 2 C0.67 1.34 0.34 0.68 0 0 Z " fill="#62BFF0" transform="translate(337,291)"/>
<path d="M0 0 C0.66 0.66 1.32 1.32 2 2 C1.34 4.31 0.68 6.62 0 9 C-0.33 9 -0.66 9 -1 9 C-1 6.69 -1 4.38 -1 2 C-2.32 2.99 -3.64 3.98 -5 5 C-5.66 4.67 -6.32 4.34 -7 4 C-5 1 -5 1 -2.5 0.1875 C-1.2625 0.0946875 -1.2625 0.0946875 0 0 Z " fill="#75D4FB" transform="translate(176,308)"/>
<path d="M0 0 C0.33 0 0.66 0 1 0 C0.50269348 4.97306516 -0.55302334 8.63799813 -3 13 C-3.33 13 -3.66 13 -4 13 C-3.50269348 8.02693484 -2.44697666 4.36200187 0 0 Z " fill="#6BC3F1" transform="translate(427,312)"/>
<path d="M0 0 C3.3 0 6.6 0 10 0 C8.68 0.33 7.36 0.66 6 1 C6 1.99 6 2.98 6 4 C4.02 4 2.04 4 0 4 C0 2.68 0 1.36 0 0 Z " fill="#5CCAF6" transform="translate(197,384)"/>
<path d="M0 0 C4.08889201 2.22222392 5.7411657 3.29408826 7.375 7.75 C7.58125 8.8225 7.7875 9.895 8 11 C2.19794344 5.35475578 2.19794344 5.35475578 0 2 C0 1.34 0 0.68 0 0 Z " fill="#67BEF2" transform="translate(186,251)"/>
<path d="M0 0 C-4.455 2.97 -4.455 2.97 -9 6 C-9.66 5.67 -10.32 5.34 -11 5 C-8.10998474 1.78887193 -4.47884754 -2.23942377 0 0 Z " fill="#67BEF1" transform="translate(351,406)"/>
<path d="M0 0 C2.64 0.99 5.28 1.98 8 3 C7.67 4.65 7.34 6.3 7 8 C3.64379729 6.61122646 1.92701272 5.08322035 0 2 C0 1.34 0 0.68 0 0 Z " fill="#6CC4F5" transform="translate(301,180)"/>
<path d="M0 0 C1.32 0.33 2.64 0.66 4 1 C4.33 3.64 4.66 6.28 5 9 C4.34 8.67 3.68 8.34 3 8 C3 7.34 3 6.68 3 6 C2.34 5.67 1.68 5.34 1 5 C0.375 2.4375 0.375 2.4375 0 0 Z " fill="#63C5F3" transform="translate(168,94)"/>
<path d="M0 0 C3.99500618 1.3697164 6.80009492 3.25722422 10 6 C7.8125 6.375 7.8125 6.375 5 6 C3.00977164 4.16038352 1.61010101 2.20813852 0 0 Z " fill="#63BAEF" transform="translate(133,361)"/>
<path d="M0 0 C0.99 0.33 1.98 0.66 3 1 C3.73046875 2.84765625 3.73046875 2.84765625 4.1875 5.0625 C4.34605469 5.79597656 4.50460937 6.52945312 4.66796875 7.28515625 C4.83232422 8.13400391 4.83232422 8.13400391 5 9 C2.9754262 7.06745228 1.57894208 5.36841312 0 3 C0 2.01 0 1.02 0 0 Z " fill="#69C2F2" transform="translate(330,250)"/>
<path d="M0 0 C0.66 0.33 1.32 0.66 2 1 C-0.16687491 3.27521866 -2.45620509 5.15794162 -5 7 C-5.66 6.67 -6.32 6.34 -7 6 C-4.69 4.02 -2.38 2.04 0 0 Z " fill="#5DBFF2" transform="translate(271,331)"/>
<path d="M0 0 C0.9075 0.185625 1.815 0.37125 2.75 0.5625 C5.68314324 0.95734621 7.2644657 0.94691572 10 0 C8.515 1.98 8.515 1.98 7 4 C4.69 3.34 2.38 2.68 0 2 C0 1.34 0 0.68 0 0 Z " fill="#5FD8FC" transform="translate(185,178)"/>
<path d="M0 0 C2.31 0.33 4.62 0.66 7 1 C7 1.66 7 2.32 7 3 C4.69 2.34 2.38 1.68 0 1 C0 0.67 0 0.34 0 0 Z " fill="#44E6FF" transform="translate(149,233)"/>
<path d="M0 0 C2.64 0 5.28 0 8 0 C8 0.33 8 0.66 8 1 C5.36 1 2.72 1 0 1 C0 0.67 0 0.34 0 0 Z " fill="#56D6FF" transform="translate(181,387)"/>
<path d="M0 0 C2.31 0 4.62 0 7 0 C7 0.33 7 0.66 7 1 C4.69 1 2.38 1 0 1 C0 0.67 0 0.34 0 0 Z " fill="#5EE1FE" transform="translate(237,443)"/>
<path d="M0 0 C2.31 0 4.62 0 7 0 C7 0.33 7 0.66 7 1 C4.69 1 2.38 1 0 1 C0 0.67 0 0.34 0 0 Z " fill="#36D4FF" transform="translate(215,443)"/>
<path d="M0 0 C2.31 0 4.62 0 7 0 C7 0.33 7 0.66 7 1 C4.69 1 2.38 1 0 1 C0 0.67 0 0.34 0 0 Z " fill="#3CE6FF" transform="translate(213,428)"/>
<path d="M0 0 C1.98 0 3.96 0 6 0 C6 0.33 6 0.66 6 1 C4.02 1 2.04 1 0 1 C0 0.67 0 0.34 0 0 Z " fill="#4DE6FF" transform="translate(204,442)"/>
<path d="M0 0 C1.65 0 3.3 0 5 0 C5 0.33 5 0.66 5 1 C3.35 1 1.7 1 0 1 C0 0.67 0 0.34 0 0 Z " fill="#2AEEFF" transform="translate(119,357)"/>
<path d="M0 0 C0.99 0.33 1.98 0.66 3 1 C1.68 1.33 0.36 1.66 -1 2 C-0.67 1.34 -0.34 0.68 0 0 Z " fill="#43EEFF" transform="translate(318,292)"/>
<path d="M0 0 C0.99 0.33 1.98 0.66 3 1 C1.68 1.33 0.36 1.66 -1 2 C-0.67 1.34 -0.34 0.68 0 0 Z " fill="#00FFFF" transform="translate(198,228)"/>
<path d="M0 0 C0.99 0.33 1.98 0.66 3 1 C2.01 1 1.02 1 0 1 C0 0.67 0 0.34 0 0 Z " fill="#5FFFFF" transform="translate(252,442)"/>
<path d="M0 0 C4 1 4 1 4 1 Z " fill="#19F2FF" transform="translate(197,441)"/>
<path d="M0 0 C4 1 4 1 4 1 Z " fill="#74E9FF" transform="translate(245,428)"/>
<path d="M0 0 C4 1 4 1 4 1 Z " fill="#54C9FF" transform="translate(165,385)"/>
<path d="M0 0 C0.66 0 1.32 0 2 0 C1.67 0.99 1.34 1.98 1 3 C0.67 2.01 0.34 1.02 0 0 Z " fill="#15E9FF" transform="translate(240,348)"/>
<path d="M0 0 C1 4 1 4 1 4 Z " fill="#35E9FF" transform="translate(223,328)"/>
<path d="M0 0 C0.99 0.495 0.99 0.495 2 1 C1.67 1.66 1.34 2.32 1 3 C0.67 2.01 0.34 1.02 0 0 Z " fill="#3FFFFF" transform="translate(24,305)"/>
<path d="M0 0 C0.99 0.495 0.99 0.495 2 1 C1.67 1.66 1.34 2.32 1 3 C0.67 2.01 0.34 1.02 0 0 Z " fill="#1FFFFF" transform="translate(377,303)"/>
<path d="M0 0 C1 4 1 4 1 4 Z " fill="#15E9FF" transform="translate(450,218)"/>
<path d="M0 0 C0.99 0.33 1.98 0.66 3 1 C2.01 1 1.02 1 0 1 C0 0.67 0 0.34 0 0 Z " fill="#54D9FF" transform="translate(306,20)"/>
<path d="M0 0 C4 1 4 1 4 1 Z " fill="#59D2FF" transform="translate(181,12)"/>
<path d="M0 0 C3 1 3 1 3 1 Z " fill="#7FDBFF" transform="translate(233,443)"/>
<path d="M0 0 C0.33 0.66 0.66 1.32 1 2 C0.34 1.67 -0.32 1.34 -1 1 C-0.67 0.67 -0.34 0.34 0 0 Z " fill="#00FFFF" transform="translate(257,441)"/>
<path d="M0 0 C0.33 0.66 0.66 1.32 1 2 C0.34 1.67 -0.32 1.34 -1 1 C-0.67 0.67 -0.34 0.34 0 0 Z " fill="#71CDFF" transform="translate(314,426)"/>
<path d="M0 0 C0.33 0.66 0.66 1.32 1 2 C0.34 1.67 -0.32 1.34 -1 1 C-0.67 0.67 -0.34 0.34 0 0 Z " fill="#2AE9FF" transform="translate(102,402)"/>
<path d="M0 0 C3 1 3 1 3 1 Z " fill="#2AFFFF" transform="translate(219,383)"/>
<path d="M0 0 C3 1 3 1 3 1 Z " fill="#54FFFF" transform="translate(127,357)"/>
<path d="M0 0 C0.66 0.66 1.32 1.32 2 2 C1.34 2 0.68 2 0 2 C0 1.34 0 0.68 0 0 Z " fill="#00FFFF" transform="translate(53,354)"/>
<path d="M0 0 C0.33 0.66 0.66 1.32 1 2 C0.34 1.67 -0.32 1.34 -1 1 C-0.67 0.67 -0.34 0.34 0 0 Z " fill="#54E9FF" transform="translate(382,340)"/>
<path d="" fill="#46E2FF" transform="translate(0,0)"/>
<path d="" fill="#54F0FF" transform="translate(0,0)"/>
<path d="" fill="#2AFFFF" transform="translate(0,0)"/>
<path d="" fill="#2AFFFF" transform="translate(0,0)"/>
<path d="M0 0 C3 1 3 1 3 1 Z " fill="#46E2FF" transform="translate(219,263)"/>
<path d="M0 0 C0.66 0.66 1.32 1.32 2 2 C1.34 2 0.68 2 0 2 C0 1.34 0 0.68 0 0 Z " fill="#2AFFFF" transform="translate(132,237)"/>
<path d="M0 0 C3 1 3 1 3 1 Z " fill="#54E9FF" transform="translate(157,235)"/>
<path d="M0 0 C3 1 3 1 3 1 Z " fill="#46E2FF" transform="translate(167,221)"/>
<path d="M0 0 C3 1 3 1 3 1 Z " fill="#00FFFF" transform="translate(188,195)"/>
<path d="" fill="#71E2FF" transform="translate(0,0)"/>
<path d="" fill="#00FFFF" transform="translate(0,0)"/>
<path d="M0 0 C0.66 0.66 1.32 1.32 2 2 C1.34 2 0.68 2 0 2 C0 1.34 0 0.68 0 0 Z " fill="#2AE9FF" transform="translate(255,153)"/>
<path d="M0 0 C0.66 0 1.32 0 2 0 C1.67 0.66 1.34 1.32 1 2 C0.67 1.34 0.34 0.68 0 0 Z " fill="#2AFFFF" transform="translate(353,44)"/>
<path d="M0 0 C3 1 3 1 3 1 Z " fill="#3ED1FF" transform="translate(117,36)"/>
<path d="M0 0 C3 1 3 1 3 1 Z " fill="#2AFFFF" transform="translate(281,13)"/>
<path d="M0 0 C2 1 2 1 2 1 Z " fill="#2AD4FF" transform="translate(229,443)"/>
<path d="M0 0 C2 1 2 1 2 1 Z " fill="#6AD4FF" transform="translate(261,441)"/>
<path d="M0 0 C2 1 2 1 2 1 Z " fill="#00FFFF" transform="translate(272,439)"/>
<path d="M0 0 C2 1 2 1 2 1 Z " fill="#3FFFFF" transform="translate(182,439)"/>
<path d="M0 0 C2 1 2 1 2 1 Z " fill="#7FDFFF" transform="translate(292,434)"/>
<path d="M0 0 C2 1 2 1 2 1 Z " fill="#76CCFE" transform="translate(294,433)"/>
<path d="M0 0 C2 1 2 1 2 1 Z " fill="#00FFFF" transform="translate(242,428)"/>
<path d="M0 0 C2 1 2 1 2 1 Z " fill="#00FFFF" transform="translate(283,421)"/>
<path d="M0 0 C2 1 2 1 2 1 Z " fill="#2AD4FF" transform="translate(330,419)"/>
<path d="M0 0 C2 1 2 1 2 1 Z " fill="#72E5FF" transform="translate(310,412)"/>
<path d="" fill="#3FFFFF" transform="translate(0,0)"/>
<path d="M0 0 C2 1 2 1 2 1 Z " fill="#7FFFFF" transform="translate(173,387)"/>
<path d="M0 0 C2 1 2 1 2 1 Z " fill="#00FFFF" transform="translate(357,381)"/>
<path d="M0 0 C2 1 2 1 2 1 Z " fill="#3FFFFF" transform="translate(141,379)"/>
<path d="" fill="#00FFFF" transform="translate(0,0)"/>
<path d="" fill="#00FFFF" transform="translate(0,0)"/>
<path d="" fill="#00FFFF" transform="translate(0,0)"/>
<path d="M0 0 C2 1 2 1 2 1 Z " fill="#3FFFFF" transform="translate(64,369)"/>
<path d="" fill="#00FFFF" transform="translate(0,0)"/>
<path d="" fill="#3FDFFF" transform="translate(0,0)"/>
<path d="M0 0 C2 1 2 1 2 1 Z " fill="#00FFFF" transform="translate(111,356)"/>
<path d="" fill="#2AD4FF" transform="translate(0,0)"/>
<path d="M0 0 C2 1 2 1 2 1 Z " fill="#6AD4FF" transform="translate(243,348)"/>
<path d="" fill="#6AD4FF" transform="translate(0,0)"/>
<path d="" fill="#3FFFFF" transform="translate(0,0)"/>
<path d="M0 0 C2 1 2 1 2 1 Z " fill="#3FFFFF" transform="translate(40,337)"/>
<path d="M0 0 C2 1 2 1 2 1 Z " fill="#3FDFFF" transform="translate(163,327)"/>
<path d="M0 0 C2 1 2 1 2 1 Z " fill="#00FFFF" transform="translate(96,325)"/>
<path d="M0 0 C2 1 2 1 2 1 Z " fill="#00FFFF" transform="translate(206,324)"/>
<path d="" fill="#00FFFF" transform="translate(0,0)"/>
<path d="" fill="#2AD4FF" transform="translate(0,0)"/>
<path d="M0 0 C2 1 2 1 2 1 Z " fill="#61C2FE" transform="translate(154,308)"/>
<path d="M0 0 C2 1 2 1 2 1 Z " fill="#00FFFF" transform="translate(305,301)"/>
<path d="M0 0 C2 1 2 1 2 1 Z " fill="#00FFFF" transform="translate(340,295)"/>
<path d="M0 0 C2 1 2 1 2 1 Z " fill="#3FFFFF" transform="translate(204,294)"/>
<path d="" fill="#6AD4FF" transform="translate(0,0)"/>
<path d="" fill="#00FFFF" transform="translate(0,0)"/>
<path d="" fill="#3FFFFF" transform="translate(0,0)"/>
<path d="M0 0 C2 1 2 1 2 1 Z " fill="#00FFFF" transform="translate(228,262)"/>
<path d="M0 0 C2 1 2 1 2 1 Z " fill="#00FFFF" transform="translate(333,261)"/>
<path d="M0 0 C2 1 2 1 2 1 Z " fill="#2AD4FF" transform="translate(232,261)"/>
<path d="M0 0 C2 1 2 1 2 1 Z " fill="#5DBBFF" transform="translate(210,260)"/>
<path d="" fill="#2AD4FF" transform="translate(0,0)"/>
<path d="" fill="#00FFFF" transform="translate(0,0)"/>
<path d="" fill="#7FFFFF" transform="translate(0,0)"/>
<path d="M0 0 C2 1 2 1 2 1 Z " fill="#6AD4FF" transform="translate(253,252)"/>
<path d="" fill="#3FFFFF" transform="translate(0,0)"/>
<path d="M0 0 C2 1 2 1 2 1 Z " fill="#5DBBFF" transform="translate(201,243)"/>
<path d="" fill="#3FFFFF" transform="translate(0,0)"/>
<path d="M0 0 C2 1 2 1 2 1 Z " fill="#3FFFFF" transform="translate(206,241)"/>
<path d="" fill="#00FFFF" transform="translate(0,0)"/>
<path d="M0 0 C2 1 2 1 2 1 Z " fill="#3FFFFF" transform="translate(135,237)"/>
<path d="M0 0 C2 1 2 1 2 1 Z " fill="#7FE9FF" transform="translate(105,235)"/>
<path d="" fill="#00FFFF" transform="translate(0,0)"/>
<path d="M0 0 C2 1 2 1 2 1 Z " fill="#3FDFFF" transform="translate(142,232)"/>
<path d="M0 0 C2 1 2 1 2 1 Z " fill="#3FFFFF" transform="translate(195,230)"/>
<path d="" fill="#6AD4FF" transform="translate(0,0)"/>
<path d="M0 0 C2 1 2 1 2 1 Z " fill="#55AAFF" transform="translate(158,220)"/>
<path d="" fill="#00FFFF" transform="translate(0,0)"/>
<path d="" fill="#00FFFF" transform="translate(0,0)"/>
<path d="" fill="#00FFFF" transform="translate(0,0)"/>
<path d="" fill="#6AD4FF" transform="translate(0,0)"/>
<path d="" fill="#7FDFFF" transform="translate(0,0)"/>
<path d="M0 0 C2 1 2 1 2 1 Z " fill="#3FFFFF" transform="translate(192,194)"/>
<path d="M0 0 C2 1 2 1 2 1 Z " fill="#2AD4FF" transform="translate(304,189)"/>
<path d="" fill="#3FFFFF" transform="translate(0,0)"/>
<path d="M0 0 C2 1 2 1 2 1 Z " fill="#3FFFFF" transform="translate(293,177)"/>
<path d="" fill="#00FFFF" transform="translate(0,0)"/>
<path d="" fill="#2AD4FF" transform="translate(0,0)"/>
<path d="" fill="#6AB4FF" transform="translate(0,0)"/>
<path d="M0 0 C2 1 2 1 2 1 Z " fill="#2AD4FF" transform="translate(286,169)"/>
<path d="" fill="#7FFFFF" transform="translate(0,0)"/>
<path d="" fill="#00FFFF" transform="translate(0,0)"/>
<path d="M0 0 C2 1 2 1 2 1 Z " fill="#7FDFFF" transform="translate(237,147)"/>
<path d="M0 0 C2 1 2 1 2 1 Z " fill="#3FFFFF" transform="translate(231,145)"/>
<path d="" fill="#00FFFF" transform="translate(0,0)"/>
<path d="" fill="#55AAFF" transform="translate(0,0)"/>
<path d="" fill="#6AB4FF" transform="translate(0,0)"/>
<path d="" fill="#3FFFFF" transform="translate(0,0)"/>
<path d="M0 0 C2 1 2 1 2 1 Z " fill="#6AD4FF" transform="translate(339,36)"/>
<path d="M0 0 C2 1 2 1 2 1 Z " fill="#2AD4FF" transform="translate(323,28)"/>
<path d="M0 0 C2 1 2 1 2 1 Z " fill="#2AD4FF" transform="translate(133,28)"/>
<path d="M0 0 C2 1 2 1 2 1 Z " fill="#7FFFFF" transform="translate(154,20)"/>
<path d="M0 0 C2 1 2 1 2 1 Z " fill="#2AD4FF" transform="translate(228,7)"/>
<path d="" fill="#00FFFF" transform="translate(0,0)"/>
<path d="" fill="#00FFFF" transform="translate(0,0)"/>
<path d="" fill="#00FFFF" transform="translate(0,0)"/>
<path d="" fill="#00FFFF" transform="translate(0,0)"/>
<path d="" fill="#7FFFFF" transform="translate(0,0)"/>
<path d="" fill="#7FFFFF" transform="translate(0,0)"/>
<path d="" fill="#7FBFFF" transform="translate(0,0)"/>
<path d="" fill="#55AAFF" transform="translate(0,0)"/>
<path d="" fill="#00FFFF" transform="translate(0,0)"/>
<path d="" fill="#00FFFF" transform="translate(0,0)"/>
<path d="" fill="#00FFFF" transform="translate(0,0)"/>
<path d="" fill="#00FFFF" transform="translate(0,0)"/>
<path d="" fill="#00FFFF" transform="translate(0,0)"/>
<path d="" fill="#7FFFFF" transform="translate(0,0)"/>
<path d="" fill="#00FFFF" transform="translate(0,0)"/>
<path d="" fill="#7FFFFF" transform="translate(0,0)"/>
<path d="" fill="#00FFFF" transform="translate(0,0)"/>
<path d="" fill="#00FFFF" transform="translate(0,0)"/>
<path d="" fill="#00FFFF" transform="translate(0,0)"/>
<path d="" fill="#7FFFFF" transform="translate(0,0)"/>
<path d="" fill="#00FFFF" transform="translate(0,0)"/>
<path d="" fill="#00FFFF" transform="translate(0,0)"/>
<path d="" fill="#7FFFFF" transform="translate(0,0)"/>
<path d="" fill="#00FFFF" transform="translate(0,0)"/>
<path d="" fill="#00FFFF" transform="translate(0,0)"/>
<path d="" fill="#00FFFF" transform="translate(0,0)"/>
<path d="" fill="#00FFFF" transform="translate(0,0)"/>
<path d="" fill="#00FFFF" transform="translate(0,0)"/>
<path d="" fill="#7FFFFF" transform="translate(0,0)"/>
<path d="" fill="#55AAFF" transform="translate(0,0)"/>
<path d="" fill="#00FFFF" transform="translate(0,0)"/>
<path d="" fill="#00FFFF" transform="translate(0,0)"/>
<path d="" fill="#00FFFF" transform="translate(0,0)"/>
<path d="" fill="#00FFFF" transform="translate(0,0)"/>
<path d="" fill="#55AAFF" transform="translate(0,0)"/>
<path d="" fill="#7FFFFF" transform="translate(0,0)"/>
<path d="" fill="#7FFFFF" transform="translate(0,0)"/>
<path d="" fill="#00FFFF" transform="translate(0,0)"/>
<path d="" fill="#00FFFF" transform="translate(0,0)"/>
<path d="" fill="#00FFFF" transform="translate(0,0)"/>
<path d="" fill="#7FFFFF" transform="translate(0,0)"/>
<path d="" fill="#00FFFF" transform="translate(0,0)"/>
<path d="" fill="#00FFFF" transform="translate(0,0)"/>
<path d="" fill="#00FFFF" transform="translate(0,0)"/>
<path d="" fill="#00FFFF" transform="translate(0,0)"/>
<path d="" fill="#00FFFF" transform="translate(0,0)"/>
<path d="" fill="#00FFFF" transform="translate(0,0)"/>
<path d="" fill="#55AAFF" transform="translate(0,0)"/>
<path d="" fill="#00FFFF" transform="translate(0,0)"/>
<path d="" fill="#00FFFF" transform="translate(0,0)"/>
<path d="" fill="#7FFFFF" transform="translate(0,0)"/>
<path d="" fill="#00FFFF" transform="translate(0,0)"/>
<path d="" fill="#00FFFF" transform="translate(0,0)"/>
<path d="" fill="#7FFFFF" transform="translate(0,0)"/>
<path d="" fill="#00FFFF" transform="translate(0,0)"/>
<path d="" fill="#00FFFF" transform="translate(0,0)"/>
<path d="" fill="#00FFFF" transform="translate(0,0)"/>
<path d="" fill="#55AAFF" transform="translate(0,0)"/>
<path d="" fill="#7FFFFF" transform="translate(0,0)"/>
<path d="" fill="#7FFFFF" transform="translate(0,0)"/>
<path d="" fill="#7FFFFF" transform="translate(0,0)"/>
<path d="" fill="#00FFFF" transform="translate(0,0)"/>
<path d="" fill="#7FFFFF" transform="translate(0,0)"/>
<path d="" fill="#00FFFF" transform="translate(0,0)"/>
<path d="" fill="#00FFFF" transform="translate(0,0)"/>
<path d="" fill="#55AAFF" transform="translate(0,0)"/>
<path d="" fill="#00FFFF" transform="translate(0,0)"/>
<path d="" fill="#00FFFF" transform="translate(0,0)"/>
<path d="" fill="#7FFFFF" transform="translate(0,0)"/>
<path d="" fill="#00FFFF" transform="translate(0,0)"/>
<path d="" fill="#00FFFF" transform="translate(0,0)"/>
<path d="" fill="#00FFFF" transform="translate(0,0)"/>
<path d="" fill="#7FFFFF" transform="translate(0,0)"/>
<path d="" fill="#00FFFF" transform="translate(0,0)"/>
<path d="" fill="#00FFFF" transform="translate(0,0)"/>
<path d="" fill="#00FFFF" transform="translate(0,0)"/>
<path d="" fill="#55AAFF" transform="translate(0,0)"/>
<path d="" fill="#00FFFF" transform="translate(0,0)"/>
<path d="" fill="#7FFFFF" transform="translate(0,0)"/>
<path d="" fill="#7FFFFF" transform="translate(0,0)"/>
<path d="" fill="#00FFFF" transform="translate(0,0)"/>
<path d="" fill="#00FFFF" transform="translate(0,0)"/>
<path d="" fill="#55AAFF" transform="translate(0,0)"/>
<path d="" fill="#00FFFF" transform="translate(0,0)"/>
<path d="" fill="#00FFFF" transform="translate(0,0)"/>
<path d="" fill="#7FFFFF" transform="translate(0,0)"/>
<path d="" fill="#00FFFF" transform="translate(0,0)"/>
<path d="" fill="#7FFFFF" transform="translate(0,0)"/>
<path d="" fill="#00FFFF" transform="translate(0,0)"/>
<path d="" fill="#00FFFF" transform="translate(0,0)"/>
<path d="" fill="#00FFFF" transform="translate(0,0)"/>
<path d="" fill="#00FFFF" transform="translate(0,0)"/>
<path d="" fill="#00FFFF" transform="translate(0,0)"/>
<path d="" fill="#55AAFF" transform="translate(0,0)"/>
<path d="" fill="#55AAFF" transform="translate(0,0)"/>
<path d="" fill="#00FFFF" transform="translate(0,0)"/>
<path d="" fill="#00FFFF" transform="translate(0,0)"/>
<path d="" fill="#55AAFF" transform="translate(0,0)"/>
<path d="" fill="#00FFFF" transform="translate(0,0)"/>
<path d="" fill="#00FFFF" transform="translate(0,0)"/>
<path d="" fill="#00FFFF" transform="translate(0,0)"/>
<path d="" fill="#00FFFF" transform="translate(0,0)"/>
<path d="" fill="#00FFFF" transform="translate(0,0)"/>
<path d="" fill="#00FFFF" transform="translate(0,0)"/>
<path d="" fill="#00FFFF" transform="translate(0,0)"/>
<path d="" fill="#00FFFF" transform="translate(0,0)"/>
<path d="" fill="#00FFFF" transform="translate(0,0)"/>
<path d="" fill="#00FFFF" transform="translate(0,0)"/>
<path d="" fill="#00FFFF" transform="translate(0,0)"/>
<path d="" fill="#00FFFF" transform="translate(0,0)"/>
<path d="" fill="#00FFFF" transform="translate(0,0)"/>
<path d="" fill="#00FFFF" transform="translate(0,0)"/>
<path d="" fill="#00FFFF" transform="translate(0,0)"/>
<path d="" fill="#7FFFFF" transform="translate(0,0)"/>
<path d="" fill="#00FFFF" transform="translate(0,0)"/>
<path d="" fill="#00FFFF" transform="translate(0,0)"/>
<path d="" fill="#00FFFF" transform="translate(0,0)"/>
<path d="" fill="#7FFFFF" transform="translate(0,0)"/>
<path d="" fill="#00FFFF" transform="translate(0,0)"/>
<path d="" fill="#7FBFFF" transform="translate(0,0)"/>
<path d="" fill="#7FFFFF" transform="translate(0,0)"/>
<path d="" fill="#7FFFFF" transform="translate(0,0)"/>
<path d="" fill="#00FFFF" transform="translate(0,0)"/>
<path d="" fill="#00FFFF" transform="translate(0,0)"/>
<path d="" fill="#7FFFFF" transform="translate(0,0)"/>
<path d="" fill="#7FBFFF" transform="translate(0,0)"/>
<path d="" fill="#00FFFF" transform="translate(0,0)"/>
<path d="" fill="#55AAFF" transform="translate(0,0)"/>
<path d="" fill="#55AAFF" transform="translate(0,0)"/>
<path d="" fill="#00FFFF" transform="translate(0,0)"/>
<path d="" fill="#7FFFFF" transform="translate(0,0)"/>
<path d="" fill="#00FFFF" transform="translate(0,0)"/>
<path d="" fill="#00FFFF" transform="translate(0,0)"/>
<path d="" fill="#7FFFFF" transform="translate(0,0)"/>
<path d="" fill="#00FFFF" transform="translate(0,0)"/>
<path d="" fill="#00FFFF" transform="translate(0,0)"/>
<path d="" fill="#7FFFFF" transform="translate(0,0)"/>
<path d="" fill="#00FFFF" transform="translate(0,0)"/>
<path d="" fill="#00FFFF" transform="translate(0,0)"/>
<path d="" fill="#00FFFF" transform="translate(0,0)"/>
<path d="" fill="#00FFFF" transform="translate(0,0)"/>
<path d="" fill="#00FFFF" transform="translate(0,0)"/>
<path d="" fill="#7FFFFF" transform="translate(0,0)"/>
<path d="" fill="#7FFFFF" transform="translate(0,0)"/>
<path d="" fill="#00FFFF" transform="translate(0,0)"/>
<path d="" fill="#7FFFFF" transform="translate(0,0)"/>
<path d="" fill="#00FFFF" transform="translate(0,0)"/>
<path d="" fill="#7FFFFF" transform="translate(0,0)"/>
<path d="" fill="#00FFFF" transform="translate(0,0)"/>
<path d="" fill="#00FFFF" transform="translate(0,0)"/>
<path d="" fill="#00FFFF" transform="translate(0,0)"/>
<path d="" fill="#00FFFF" transform="translate(0,0)"/>
<path d="" fill="#00FFFF" transform="translate(0,0)"/>
<path d="" fill="#00FFFF" transform="translate(0,0)"/>
<path d="" fill="#00FFFF" transform="translate(0,0)"/>
<path d="" fill="#7FFFFF" transform="translate(0,0)"/>
<path d="" fill="#00FFFF" transform="translate(0,0)"/>
<path d="" fill="#7FFFFF" transform="translate(0,0)"/>
<path d="" fill="#55AAFF" transform="translate(0,0)"/>
<path d="" fill="#00FFFF" transform="translate(0,0)"/>
<path d="" fill="#00FFFF" transform="translate(0,0)"/>
<path d="" fill="#00FFFF" transform="translate(0,0)"/>
<path d="" fill="#00FFFF" transform="translate(0,0)"/>
<path d="" fill="#66CCFF" transform="translate(0,0)"/>
<path d="" fill="#00FFFF" transform="translate(0,0)"/>
<path d="" fill="#00FFFF" transform="translate(0,0)"/>
<path d="" fill="#00FFFF" transform="translate(0,0)"/>
<path d="" fill="#00FFFF" transform="translate(0,0)"/>
<path d="" fill="#00FFFF" transform="translate(0,0)"/>
<path d="" fill="#00FFFF" transform="translate(0,0)"/>
<path d="" fill="#00FFFF" transform="translate(0,0)"/>
<path d="" fill="#00FFFF" transform="translate(0,0)"/>
<path d="" fill="#7FFFFF" transform="translate(0,0)"/>
<path d="" fill="#00FFFF" transform="translate(0,0)"/>
<path d="" fill="#00FFFF" transform="translate(0,0)"/>
<path d="" fill="#55AAFF" transform="translate(0,0)"/>
<path d="" fill="#00FFFF" transform="translate(0,0)"/>
<path d="" fill="#00FFFF" transform="translate(0,0)"/>
<path d="" fill="#55AAFF" transform="translate(0,0)"/>
<path d="" fill="#00FFFF" transform="translate(0,0)"/>
<path d="" fill="#7FFFFF" transform="translate(0,0)"/>
<path d="" fill="#7FFFFF" transform="translate(0,0)"/>
<path d="" fill="#00FFFF" transform="translate(0,0)"/>
<path d="" fill="#00FFFF" transform="translate(0,0)"/>
<path d="" fill="#7FBFFF" transform="translate(0,0)"/>
<path d="" fill="#00FFFF" transform="translate(0,0)"/>
<path d="" fill="#00FFFF" transform="translate(0,0)"/>
<path d="" fill="#00FFFF" transform="translate(0,0)"/>
<path d="" fill="#7FFFFF" transform="translate(0,0)"/>
<path d="" fill="#7FFFFF" transform="translate(0,0)"/>
<path d="" fill="#00FFFF" transform="translate(0,0)"/>
<path d="" fill="#00FFFF" transform="translate(0,0)"/>
<path d="" fill="#7FFFFF" transform="translate(0,0)"/>
<path d="" fill="#00FFFF" transform="translate(0,0)"/>
<path d="" fill="#00FFFF" transform="translate(0,0)"/>
<path d="" fill="#55AAFF" transform="translate(0,0)"/>
<path d="" fill="#7FFFFF" transform="translate(0,0)"/>
<path d="" fill="#00FFFF" transform="translate(0,0)"/>
<path d="" fill="#7FFFFF" transform="translate(0,0)"/>
<path d="" fill="#7FFFFF" transform="translate(0,0)"/>
<path d="" fill="#00FFFF" transform="translate(0,0)"/>
<path d="" fill="#00FFFF" transform="translate(0,0)"/>
<path d="" fill="#00FFFF" transform="translate(0,0)"/>
<path d="" fill="#00FFFF" transform="translate(0,0)"/>
<path d="" fill="#7FFFFF" transform="translate(0,0)"/>
<path d="" fill="#00FFFF" transform="translate(0,0)"/>
<path d="" fill="#00FFFF" transform="translate(0,0)"/>
<path d="" fill="#00FFFF" transform="translate(0,0)"/>
<path d="" fill="#00FFFF" transform="translate(0,0)"/>
<path d="" fill="#00FFFF" transform="translate(0,0)"/>
<path d="" fill="#00FFFF" transform="translate(0,0)"/>
<path d="" fill="#00FFFF" transform="translate(0,0)"/>
<path d="" fill="#7FFFFF" transform="translate(0,0)"/>
<path d="" fill="#00FFFF" transform="translate(0,0)"/>
<path d="" fill="#00FFFF" transform="translate(0,0)"/>
<path d="" fill="#7FFFFF" transform="translate(0,0)"/>
<path d="" fill="#55AAFF" transform="translate(0,0)"/>
<path d="" fill="#00FFFF" transform="translate(0,0)"/>
<path d="" fill="#00FFFF" transform="translate(0,0)"/>
<path d="" fill="#00FFFF" transform="translate(0,0)"/>
<path d="" fill="#00FFFF" transform="translate(0,0)"/>
<path d="" fill="#7FFFFF" transform="translate(0,0)"/>
<path d="" fill="#00FFFF" transform="translate(0,0)"/>
<path d="" fill="#7FFFFF" transform="translate(0,0)"/>
<path d="" fill="#00FFFF" transform="translate(0,0)"/>
<path d="" fill="#7FFFFF" transform="translate(0,0)"/>
<path d="" fill="#7FFFFF" transform="translate(0,0)"/>
<path d="" fill="#00FFFF" transform="translate(0,0)"/>
<path d="" fill="#00FFFF" transform="translate(0,0)"/>
<path d="" fill="#00FFFF" transform="translate(0,0)"/>
<path d="" fill="#7FFFFF" transform="translate(0,0)"/>
<path d="" fill="#66CCFF" transform="translate(0,0)"/>
<path d="" fill="#55AAFF" transform="translate(0,0)"/>
<path d="" fill="#7FFFFF" transform="translate(0,0)"/>
<path d="" fill="#00FFFF" transform="translate(0,0)"/>
<path d="" fill="#00FFFF" transform="translate(0,0)"/>
<path d="" fill="#00FFFF" transform="translate(0,0)"/>
<path d="" fill="#00FFFF" transform="translate(0,0)"/>
<path d="" fill="#7FBFFF" transform="translate(0,0)"/>
<path d="" fill="#00FFFF" transform="translate(0,0)"/>
<path d="" fill="#00FFFF" transform="translate(0,0)"/>
<path d="" fill="#00FFFF" transform="translate(0,0)"/>
<path d="" fill="#00FFFF" transform="translate(0,0)"/>
<path d="" fill="#00FFFF" transform="translate(0,0)"/>
<path d="" fill="#00FFFF" transform="translate(0,0)"/>
<path d="" fill="#00FFFF" transform="translate(0,0)"/>
<path d="" fill="#00FFFF" transform="translate(0,0)"/>
<path d="" fill="#7FFFFF" transform="translate(0,0)"/>
<path d="" fill="#00FFFF" transform="translate(0,0)"/>
<path d="" fill="#7FFFFF" transform="translate(0,0)"/>
<path d="" fill="#7FFFFF" transform="translate(0,0)"/>
<path d="" fill="#00FFFF" transform="translate(0,0)"/>
<path d="" fill="#00FFFF" transform="translate(0,0)"/>
<path d="" fill="#00FFFF" transform="translate(0,0)"/>
<path d="" fill="#00FFFF" transform="translate(0,0)"/>
<path d="" fill="#00FFFF" transform="translate(0,0)"/>
<path d="" fill="#7FFFFF" transform="translate(0,0)"/>
<path d="" fill="#00FFFF" transform="translate(0,0)"/>
<path d="" fill="#00FFFF" transform="translate(0,0)"/>
<path d="" fill="#00FFFF" transform="translate(0,0)"/>
<path d="" fill="#7FFFFF" transform="translate(0,0)"/>
<path d="" fill="#00FFFF" transform="translate(0,0)"/>
<path d="" fill="#7FFFFF" transform="translate(0,0)"/>
<path d="" fill="#55AAFF" transform="translate(0,0)"/>
<path d="" fill="#00FFFF" transform="translate(0,0)"/>
<path d="" fill="#00FFFF" transform="translate(0,0)"/>
<path d="" fill="#00FFFF" transform="translate(0,0)"/>
<path d="" fill="#00FFFF" transform="translate(0,0)"/>
<path d="" fill="#00FFFF" transform="translate(0,0)"/>
<path d="" fill="#00FFFF" transform="translate(0,0)"/>
<path d="" fill="#00FFFF" transform="translate(0,0)"/>
<path d="" fill="#00FFFF" transform="translate(0,0)"/>
<path d="" fill="#7FFFFF" transform="translate(0,0)"/>
<path d="" fill="#55AAFF" transform="translate(0,0)"/>
<path d="" fill="#00FFFF" transform="translate(0,0)"/>
<path d="" fill="#00FFFF" transform="translate(0,0)"/>
<path d="" fill="#7FFFFF" transform="translate(0,0)"/>
<path d="" fill="#00FFFF" transform="translate(0,0)"/>
<path d="" fill="#55AAFF" transform="translate(0,0)"/>
<path d="" fill="#00FFFF" transform="translate(0,0)"/>
<path d="" fill="#7FFFFF" transform="translate(0,0)"/>
<path d="" fill="#00FFFF" transform="translate(0,0)"/>
<path d="" fill="#7FFFFF" transform="translate(0,0)"/>
<path d="" fill="#55AAFF" transform="translate(0,0)"/>
<path d="" fill="#66CCFF" transform="translate(0,0)"/>
<path d="" fill="#00FFFF" transform="translate(0,0)"/>
<path d="" fill="#00FFFF" transform="translate(0,0)"/>
<path d="" fill="#00FFFF" transform="translate(0,0)"/>
<path d="" fill="#7FFFFF" transform="translate(0,0)"/>
<path d="" fill="#7FFFFF" transform="translate(0,0)"/>
<path d="" fill="#55AAFF" transform="translate(0,0)"/>
<path d="" fill="#7FFFFF" transform="translate(0,0)"/>
<path d="" fill="#00FFFF" transform="translate(0,0)"/>
<path d="" fill="#7FFFFF" transform="translate(0,0)"/>
<path d="" fill="#00FFFF" transform="translate(0,0)"/>
<path d="" fill="#00FFFF" transform="translate(0,0)"/>
<path d="" fill="#00FFFF" transform="translate(0,0)"/>
<path d="" fill="#7FFFFF" transform="translate(0,0)"/>
<path d="" fill="#00FFFF" transform="translate(0,0)"/>
<path d="" fill="#00FFFF" transform="translate(0,0)"/>
<path d="" fill="#00FFFF" transform="translate(0,0)"/>
<path d="" fill="#00FFFF" transform="translate(0,0)"/>
<path d="" fill="#00FFFF" transform="translate(0,0)"/>
<path d="" fill="#00FFFF" transform="translate(0,0)"/>
<path d="" fill="#00FFFF" transform="translate(0,0)"/>
<path d="" fill="#00FFFF" transform="translate(0,0)"/>
<path d="" fill="#00FFFF" transform="translate(0,0)"/>
<path d="" fill="#7FFFFF" transform="translate(0,0)"/>
<path d="" fill="#55AAFF" transform="translate(0,0)"/>
<path d="" fill="#7FFFFF" transform="translate(0,0)"/>
<path d="" fill="#7FFFFF" transform="translate(0,0)"/>
<path d="" fill="#7FFFFF" transform="translate(0,0)"/>
<path d="" fill="#55AAFF" transform="translate(0,0)"/>
<path d="" fill="#00FFFF" transform="translate(0,0)"/>
<path d="" fill="#55AAFF" transform="translate(0,0)"/>
<path d="" fill="#00FFFF" transform="translate(0,0)"/>
<path d="" fill="#7FFFFF" transform="translate(0,0)"/>
<path d="" fill="#00FFFF" transform="translate(0,0)"/>
<path d="" fill="#00FFFF" transform="translate(0,0)"/>
<path d="" fill="#7FFFFF" transform="translate(0,0)"/>
<path d="" fill="#00FFFF" transform="translate(0,0)"/>
<path d="" fill="#00FFFF" transform="translate(0,0)"/>
<path d="" fill="#00FFFF" transform="translate(0,0)"/>
<path d="" fill="#00FFFF" transform="translate(0,0)"/>
<path d="" fill="#00FFFF" transform="translate(0,0)"/>
<path d="" fill="#7FFFFF" transform="translate(0,0)"/>
<path d="" fill="#00FFFF" transform="translate(0,0)"/>
<path d="" fill="#00FFFF" transform="translate(0,0)"/>
<path d="" fill="#7FBFFF" transform="translate(0,0)"/>
<path d="" fill="#00FFFF" transform="translate(0,0)"/>
<path d="" fill="#00FFFF" transform="translate(0,0)"/>
<path d="" fill="#00FFFF" transform="translate(0,0)"/>
<path d="" fill="#7FFFFF" transform="translate(0,0)"/>
<path d="" fill="#55AAFF" transform="translate(0,0)"/>
<path d="" fill="#00FFFF" transform="translate(0,0)"/>
<path d="" fill="#00FFFF" transform="translate(0,0)"/>
<path d="" fill="#00FFFF" transform="translate(0,0)"/>
<path d="" fill="#00FFFF" transform="translate(0,0)"/>
<path d="" fill="#00FFFF" transform="translate(0,0)"/>
<path d="" fill="#7FFFFF" transform="translate(0,0)"/>
<path d="" fill="#00FFFF" transform="translate(0,0)"/>
<path d="" fill="#00FFFF" transform="translate(0,0)"/>
<path d="" fill="#00FFFF" transform="translate(0,0)"/>
<path d="" fill="#00FFFF" transform="translate(0,0)"/>
<path d="" fill="#00FFFF" transform="translate(0,0)"/>
<path d="" fill="#00FFFF" transform="translate(0,0)"/>
<path d="" fill="#00FFFF" transform="translate(0,0)"/>
<path d="" fill="#00FFFF" transform="translate(0,0)"/>
<path d="" fill="#00FFFF" transform="translate(0,0)"/>
<path d="" fill="#00FFFF" transform="translate(0,0)"/>
<path d="" fill="#00FFFF" transform="translate(0,0)"/>
<path d="" fill="#00FFFF" transform="translate(0,0)"/>
<path d="" fill="#00FFFF" transform="translate(0,0)"/>
<path d="" fill="#7FFFFF" transform="translate(0,0)"/>
<path d="" fill="#7FFFFF" transform="translate(0,0)"/>
<path d="" fill="#7FFFFF" transform="translate(0,0)"/>
<path d="" fill="#7FBFFF" transform="translate(0,0)"/>
<path d="" fill="#00FFFF" transform="translate(0,0)"/>
<path d="" fill="#00FFFF" transform="translate(0,0)"/>
<path d="" fill="#00FFFF" transform="translate(0,0)"/>
<path d="" fill="#00FFFF" transform="translate(0,0)"/>
<path d="" fill="#7FFFFF" transform="translate(0,0)"/>
<path d="" fill="#7FFFFF" transform="translate(0,0)"/>
<path d="" fill="#7FFFFF" transform="translate(0,0)"/>
<path d="" fill="#00FFFF" transform="translate(0,0)"/>
<path d="" fill="#00FFFF" transform="translate(0,0)"/>
<path d="" fill="#55AAFF" transform="translate(0,0)"/>
<path d="" fill="#7FFFFF" transform="translate(0,0)"/>
<path d="" fill="#00FFFF" transform="translate(0,0)"/>
<path d="" fill="#00FFFF" transform="translate(0,0)"/>
<path d="" fill="#00FFFF" transform="translate(0,0)"/>
<path d="" fill="#00FFFF" transform="translate(0,0)"/>
<path d="" fill="#00FFFF" transform="translate(0,0)"/>
<path d="" fill="#00FFFF" transform="translate(0,0)"/>
<path d="" fill="#00FFFF" transform="translate(0,0)"/>
<path d="" fill="#7FBFFF" transform="translate(0,0)"/>
<path d="" fill="#00FFFF" transform="translate(0,0)"/>
<path d="" fill="#00FFFF" transform="translate(0,0)"/>
<path d="" fill="#00FFFF" transform="translate(0,0)"/>
<path d="" fill="#00FFFF" transform="translate(0,0)"/>
<path d="" fill="#00FFFF" transform="translate(0,0)"/>
<path d="" fill="#00FFFF" transform="translate(0,0)"/>
<path d="" fill="#7FFFFF" transform="translate(0,0)"/>
<path d="" fill="#00FFFF" transform="translate(0,0)"/>
<path d="" fill="#00FFFF" transform="translate(0,0)"/>
<path d="" fill="#00FFFF" transform="translate(0,0)"/>
<path d="" fill="#00FFFF" transform="translate(0,0)"/>
<path d="" fill="#00FFFF" transform="translate(0,0)"/>
<path d="" fill="#7FFFFF" transform="translate(0,0)"/>
<path d="" fill="#00FFFF" transform="translate(0,0)"/>
<path d="" fill="#00FFFF" transform="translate(0,0)"/>
<path d="" fill="#00FFFF" transform="translate(0,0)"/>
<path d="" fill="#7FFFFF" transform="translate(0,0)"/>
<path d="" fill="#7FFFFF" transform="translate(0,0)"/>
<path d="" fill="#7FFFFF" transform="translate(0,0)"/>
<path d="" fill="#00FFFF" transform="translate(0,0)"/>
<path d="" fill="#7FFFFF" transform="translate(0,0)"/>
<path d="" fill="#00FFFF" transform="translate(0,0)"/>
<path d="" fill="#00FFFF" transform="translate(0,0)"/>
<path d="" fill="#7FFFFF" transform="translate(0,0)"/>
<path d="" fill="#00FFFF" transform="translate(0,0)"/>
<path d="" fill="#7FFFFF" transform="translate(0,0)"/>
<path d="" fill="#00FFFF" transform="translate(0,0)"/>
<path d="" fill="#00FFFF" transform="translate(0,0)"/>
<path d="" fill="#00FFFF" transform="translate(0,0)"/>
<path d="" fill="#00FFFF" transform="translate(0,0)"/>
<path d="" fill="#7FFFFF" transform="translate(0,0)"/>
<path d="" fill="#7FFFFF" transform="translate(0,0)"/>
<path d="" fill="#00FFFF" transform="translate(0,0)"/>
<path d="" fill="#00FFFF" transform="translate(0,0)"/>
<path d="" fill="#00FFFF" transform="translate(0,0)"/>
</svg>
